<?xml version="1.0" standalone="no"?>
<!DOCTYPE svg PUBLIC "-//W3C//DTD SVG 20010904//EN"
 "http://www.w3.org/TR/2001/REC-SVG-20010904/DTD/svg10.dtd">
<svg version="1.0" xmlns="http://www.w3.org/2000/svg"
 width="260.000000pt" height="260.000000pt" viewBox="0 0 260.000000 260.000000"
 preserveAspectRatio="xMidYMid meet">
<metadata>
Created by potrace 1.14, written by Peter Selinger 2001-2017
</metadata>
<g transform="translate(0.000000,260.000000) scale(0.100000,-0.100000)"
fill="#000000" stroke="none">
<path d="M0 1300 l0 -1300 1300 0 1300 0 0 1300 0 1300 -1300 0 -1300 0 0
-1300z m1567 495 l-332 -475 -468 0 c-372 0 -467 3 -461 13 12 18 581 833 621
890 l35 47 468 0 469 0 -332 -475z m501 -37 c7 -7 12 -19 12 -27 0 -9 -139
-214 -308 -456 l-307 -440 -439 -3 c-316 -1 -443 1 -452 9 -21 17 -17 46 8 63
19 14 77 16 428 16 l405 0 270 387 c350 502 321 463 348 463 13 0 28 -5 35
-12z m216 -494 c9 -8 16 -23 16 -32 0 -9 -139 -215 -308 -457 l-308 -440 -436
-3 c-387 -2 -438 0 -452 14 -20 20 -20 38 0 58 13 14 66 16 427 16 l412 0 290
416 c160 229 299 422 310 430 25 18 30 18 49 -2z"/>
<path d="M795 1878 c-116 -166 -236 -339 -268 -385 l-58 -83 360 0 359 0 266
380 c146 209 266 383 266 385 0 3 -161 5 -357 5 l-358 -1 -210 -301z"/>
</g>
</svg>
