<svg width="1122" height="232" viewBox="0 0 1122 232" fill="none" xmlns="http://www.w3.org/2000/svg">
<g clip-path="url(#clip0)">
<path d="M358.766 175.556C355.844 175.556 353.394 174.59 351.461 172.657C349.528 170.724 348.562 168.297 348.562 165.352V76.4386C348.562 73.3819 349.528 70.9095 351.461 69.0441C353.394 67.1786 355.822 66.2346 358.766 66.2346C361.823 66.2346 364.295 67.1786 366.16 69.0441C368.026 70.9095 368.97 73.3819 368.97 76.4386V165.375C368.97 168.297 368.026 170.746 366.16 172.679C364.295 174.59 361.823 175.556 358.766 175.556ZM425.519 175.556C422.597 175.556 420.147 174.59 418.214 172.657C416.281 170.724 415.315 168.297 415.315 165.352V108.197C415.315 99.8132 413.247 93.5875 409.111 89.5194C404.976 85.4513 399.582 83.4285 392.929 83.4285C386.006 83.4285 380.275 85.8334 375.735 90.6207C371.195 95.408 368.947 101.544 368.947 109.006H356.361C356.361 100.353 358.092 92.7109 361.553 86.1256C365.014 79.5402 369.802 74.3708 375.937 70.6398C382.073 66.9089 389.063 65.0434 396.93 65.0434C404.526 65.0434 411.247 66.7066 417.113 70.033C422.979 73.3594 427.541 78.2591 430.8 84.7321C434.059 91.2051 435.7 99.0266 435.7 108.219V165.375C435.7 168.297 434.756 170.746 432.913 172.679C431.048 174.59 428.575 175.556 425.519 175.556ZM492.069 175.556C489.147 175.556 486.697 174.59 484.765 172.657C482.832 170.724 481.865 168.297 481.865 165.352V108.197C481.865 99.8132 479.797 93.5875 475.662 89.5194C471.526 85.4513 466.132 83.4285 459.479 83.4285C452.557 83.4285 446.848 85.8334 442.398 90.6207C437.925 95.408 435.7 101.544 435.7 109.006H419.113C419.113 100.353 420.979 92.7109 424.71 86.1256C428.441 79.5402 433.677 74.3708 440.398 70.6398C447.118 66.9089 454.827 65.0434 463.48 65.0434C471.077 65.0434 477.797 66.7066 483.663 70.033C489.529 73.3594 494.092 78.2591 497.351 84.7321C500.61 91.2051 502.251 99.0266 502.251 108.219V165.375C502.251 168.297 501.307 170.746 499.464 172.679C497.576 174.59 495.126 175.556 492.069 175.556Z" fill="#F9F871"/>
<path d="M571.588 176.141C561.856 176.141 553.135 173.713 545.404 168.836C537.672 163.981 531.581 157.373 527.109 149.057C522.636 140.741 520.411 131.302 520.411 120.783C520.411 110.264 522.838 100.802 527.715 92.4187C532.57 84.0353 539.178 77.405 547.494 72.5278C555.81 67.673 565.182 65.2232 575.566 65.2232C585.95 65.2232 595.277 67.6506 603.548 72.5278C611.797 77.3825 618.36 84.0128 623.237 92.4187C628.092 100.802 630.542 110.264 630.542 120.783H622.742C622.742 131.302 620.517 140.741 616.045 149.057C611.572 157.396 605.481 163.981 597.772 168.836C590.04 173.713 581.32 176.141 571.588 176.141ZM575.589 158.16C582.376 158.16 588.445 156.519 593.771 153.26C599.098 150.001 603.301 145.529 606.358 139.865C609.414 134.201 610.943 127.84 610.943 120.783C610.943 113.591 609.414 107.163 606.358 101.499C603.301 95.835 599.098 91.3849 593.771 88.1034C588.445 84.8444 582.376 83.2037 575.589 83.2037C568.936 83.2037 562.89 84.8444 557.496 88.1034C552.101 91.3624 547.831 95.835 544.707 101.499C541.583 107.163 540.01 113.591 540.01 120.783C540.01 127.84 541.583 134.201 544.707 139.865C547.831 145.529 552.101 150.001 557.496 153.26C562.89 156.519 568.936 158.16 575.589 158.16ZM620.36 175.556C617.438 175.556 614.988 174.59 613.055 172.657C611.123 170.724 610.156 168.297 610.156 165.352V134.785L613.954 113.613L630.542 120.806V165.375C630.542 168.297 629.575 170.746 627.642 172.679C625.709 174.59 623.282 175.556 620.36 175.556Z" fill="#F9F871"/>
<path d="M660.906 175.354C657.715 175.354 655.243 174.522 653.512 172.859C651.781 171.196 650.905 168.701 650.905 165.375V76.034C650.905 72.8425 651.759 70.3701 653.512 68.6395C655.243 66.9089 657.715 66.0323 660.906 66.0323C664.233 66.0323 666.728 66.8639 668.391 68.5271C670.054 70.1903 670.886 72.6851 670.886 76.0115V165.33C670.886 168.521 670.054 170.994 668.391 172.724C666.75 174.477 664.233 175.354 660.906 175.354ZM660.704 107.005C660.704 99.0041 662.66 91.8569 666.593 85.5187C670.526 79.2031 675.808 74.1685 682.483 70.4376C689.136 66.7066 696.463 64.8411 704.464 64.8411C712.466 64.8411 718.422 66.1447 722.355 68.7294C726.288 71.3366 727.794 74.4158 726.85 78.0119C726.445 79.8773 725.681 81.3158 724.557 82.3047C723.434 83.2936 722.13 83.9454 720.669 84.1927C719.208 84.4624 717.612 84.3949 715.882 83.9904C707.364 82.2598 699.699 82.1249 692.912 83.5858C686.124 85.0467 680.752 87.7888 676.819 91.7894C672.886 95.7901 670.931 100.847 670.931 106.983H660.704V107.005Z" fill="#F9F871"/>
<path d="M747.842 175.354C744.92 175.354 742.538 174.455 740.74 172.657C738.942 170.859 738.043 168.499 738.043 165.555V29.0599C738.043 26.1381 738.942 23.7556 740.74 21.9576C742.538 20.1595 744.898 19.2605 747.842 19.2605C750.786 19.2605 753.146 20.1595 754.944 21.9576C756.742 23.7556 757.641 26.1156 757.641 29.0599V165.555C757.641 168.476 756.742 170.859 754.944 172.657C753.146 174.455 750.764 175.354 747.842 175.354ZM757.237 135.37L744.853 121.772L806.211 67.0213C808.212 65.1558 810.437 64.3017 812.909 64.4141C815.381 64.5489 817.472 65.6053 819.202 67.6056C821.068 69.606 821.922 71.8086 821.81 74.191C821.675 76.5959 820.618 78.7311 818.618 80.5741L757.237 135.37ZM819.18 174.343C817.045 176.073 814.685 176.837 812.078 176.635C809.47 176.433 807.313 175.264 805.582 173.129L765.036 122.986L779.016 109.792L820.573 160.947C822.304 163.082 823.068 165.375 822.866 167.847C822.686 170.319 821.45 172.477 819.18 174.343Z" fill="#F9F871"/>
<path d="M887.326 176.14C877.594 176.14 868.874 173.713 861.142 168.836C853.411 163.981 847.32 157.373 842.847 149.057C838.374 140.741 836.149 131.302 836.149 120.783C836.149 110.264 838.577 100.802 843.454 92.4186C848.309 84.0352 854.916 77.4049 863.232 72.5277C871.548 67.6729 880.921 65.2231 891.304 65.2231C901.688 65.2231 911.016 67.6505 919.287 72.5277C927.535 77.3824 934.098 84.0127 938.975 92.4186C943.83 100.802 946.28 110.264 946.28 120.783H938.481C938.481 131.302 936.256 140.741 931.783 149.057C927.31 157.396 921.22 163.981 913.51 168.836C905.779 173.713 897.058 176.14 887.326 176.14ZM891.327 158.16C898.115 158.16 904.183 156.519 909.51 153.26C914.836 150.001 919.039 145.529 922.096 139.865C925.153 134.201 926.681 127.84 926.681 120.783C926.681 113.591 925.153 107.163 922.096 101.499C919.039 95.8349 914.836 91.3848 909.51 88.1033C904.183 84.8443 898.115 83.2036 891.327 83.2036C884.674 83.2036 878.628 84.8443 873.234 88.1033C867.84 91.3623 863.57 95.8349 860.445 101.499C857.321 107.163 855.748 113.591 855.748 120.783C855.748 127.84 857.321 134.201 860.445 139.865C863.57 145.529 867.84 150.001 873.234 153.26C878.628 156.519 884.652 158.16 891.327 158.16ZM936.076 175.556C933.154 175.556 930.704 174.59 928.771 172.657C926.839 170.724 925.872 168.296 925.872 165.352V134.785L929.67 113.613L946.258 120.805V165.375C946.258 168.296 945.291 170.746 943.358 172.679C941.448 174.59 939.02 175.556 936.076 175.556Z" fill="#F9F871"/>
<path d="M978.847 48.2541C975.251 48.2541 972.149 46.9505 969.565 44.3658C966.958 41.7586 965.676 38.6795 965.676 35.0834C965.676 31.4873 966.98 28.3856 969.565 25.8009C972.172 23.1938 975.251 21.9126 978.847 21.9126C982.443 21.9126 985.545 23.2162 988.13 25.8009C990.737 28.4081 992.018 31.4873 992.018 35.0834C992.018 38.6795 990.714 41.7811 988.13 44.3658C985.545 46.9505 982.443 48.2541 978.847 48.2541ZM978.847 175.354C975.925 175.354 973.476 174.387 971.543 172.455C969.61 170.522 968.643 168.094 968.643 165.15V76.2363C968.643 73.1796 969.61 70.7073 971.543 68.8418C973.476 66.9763 975.903 66.0324 978.847 66.0324C981.904 66.0324 984.376 66.9763 986.242 68.8418C988.107 70.7073 989.029 73.1796 989.029 76.2363V165.173C989.029 168.094 988.085 170.544 986.242 172.477C984.376 174.388 981.904 175.354 978.847 175.354Z" fill="#F9F871"/>
<path d="M1066.57 176.141C1056.19 176.141 1046.81 173.713 1038.5 168.836C1030.16 163.981 1023.57 157.351 1018.72 148.945C1013.86 140.562 1011.41 131.099 1011.41 120.558C1011.41 110.04 1013.64 100.6 1018.11 92.2839C1022.58 83.9679 1028.68 77.3601 1036.41 72.5053C1044.14 67.6506 1052.86 65.2007 1062.59 65.2007C1070.46 65.2007 1077.72 66.8415 1084.37 70.1004C1091.02 73.3594 1096.62 77.7871 1101.16 83.3836V29.4644C1101.16 26.4078 1102.13 23.9354 1104.06 22.07C1105.99 20.2045 1108.42 19.2605 1111.36 19.2605C1114.42 19.2605 1116.89 20.2045 1118.76 22.07C1120.62 23.9354 1121.57 26.4078 1121.57 29.4644V120.581C1121.57 131.099 1119.14 140.562 1114.26 148.968C1109.41 157.351 1102.84 163.981 1094.57 168.858C1086.28 173.713 1076.95 176.141 1066.57 176.141ZM1066.57 158.16C1073.36 158.16 1079.43 156.519 1084.75 153.26C1090.08 150.001 1094.28 145.506 1097.34 139.775C1100.4 134.044 1101.92 127.661 1101.92 120.581C1101.92 113.389 1100.4 106.983 1097.34 101.387C1094.28 95.7901 1090.08 91.3624 1084.75 88.1034C1079.43 84.8445 1073.36 83.2038 1066.57 83.2038C1059.92 83.2038 1053.87 84.8445 1048.48 88.1034C1043.08 91.3624 1038.81 95.7901 1035.69 101.387C1032.56 106.983 1030.99 113.366 1030.99 120.581C1030.99 127.638 1032.56 134.044 1035.69 139.775C1038.81 145.506 1043.08 150.001 1048.48 153.26C1053.89 156.519 1059.92 158.16 1066.57 158.16Z" fill="#F9F871"/>
<path fill-rule="evenodd" clip-rule="evenodd" d="M79.6318 0.719238H191.392L112.598 113.343H0.862305L79.6318 0.719238ZM85.1334 11.2808L21.1375 102.781H107.098L171.114 11.2808H85.1334Z" fill="#F9F871"/>
<path fill-rule="evenodd" clip-rule="evenodd" d="M210.666 60.8286C213.056 62.5001 213.638 65.7926 211.967 68.1825L139.008 172.499H37.4088C34.4924 172.499 32.1281 170.134 32.1281 167.218C32.1281 164.301 34.4924 161.937 37.4088 161.937H133.506L203.312 62.1293C204.984 59.7394 208.276 59.157 210.666 60.8286Z" fill="#F9F871"/>
<path fill-rule="evenodd" clip-rule="evenodd" d="M237.075 119.984C239.465 121.656 240.047 124.949 238.376 127.338L165.417 231.655H63.8178C60.9013 231.655 58.537 229.29 58.537 226.374C58.537 223.457 60.9013 221.093 63.8178 221.093H159.915L229.721 121.285C231.393 118.895 234.685 118.313 237.075 119.984Z" fill="#F9F871"/>
</g>
<defs>
<clipPath id="clip0">
<rect width="1120.7" height="230.935" fill="white" transform="translate(0.862305 0.719238)"/>
</clipPath>
</defs>
</svg>
